HIERARCHY
ROOT hip
{
	OFFSET 0.000000 0.000000 0.000000
	CHANNELS 6 Xposition Yposition Zposition Xrotation Zrotation Yrotation 
	JOINT abdomen
	{
		OFFSET 0.000000 3.422050 0.000000
		CHANNELS 3 Xrotation Zrotation Yrotation 
		JOINT chest
		{
			OFFSET 0.000000 8.486693 -0.684411
			CHANNELS 3 Xrotation Zrotation Yrotation 
			JOINT neck
			{
				OFFSET 0.000000 10.266162 -0.273764
				CHANNELS 3 Xrotation Zrotation Yrotation 
				JOINT head
				{
					OFFSET 0.000000 3.148285 0.000000
					CHANNELS 3 Xrotation Zrotation Yrotation 
					End Site
					{
						OFFSET 0.000000 3.148289 0.000000
					}
				}
			}
			JOINT lCollar
			{
				OFFSET 3.422053 6.707223 -0.821293
				CHANNELS 3 Yrotation Zrotation Xrotation 
				JOINT lShldr
				{
					OFFSET 3.285171 0.000000 0.000000
					CHANNELS 3 Zrotation Yrotation Xrotation 
					JOINT lForeArm
					{
						OFFSET 10.129278 0.000000 0.000000
						CHANNELS 3 Yrotation Zrotation Xrotation 
						JOINT lHand
						{
							OFFSET 8.486692 0.000000 0.000000
							CHANNELS 3 Zrotation Yrotation Xrotation 
							End Site
							{
								OFFSET 4.106464 0.000000 0.000000
							}
						}
					}
				}
			}
			JOINT rCollar
			{
				OFFSET -3.558935 6.707223 -0.821293
				CHANNELS 3 Yrotation Zrotation Xrotation 
				JOINT rShldr
				{
					OFFSET -3.148289 0.000000 0.000000
					CHANNELS 3 Zrotation Yrotation Xrotation 
					JOINT rForeArm
					{
						OFFSET -10.266159 0.000000 0.000000
						CHANNELS 3 Yrotation Zrotation Xrotation 
						JOINT rHand
						{
							OFFSET -8.349810 0.000000 0.000000
							CHANNELS 3 Zrotation Yrotation Xrotation 
							End Site
							{
								OFFSET -4.106464 0.000000 0.000000
							}
						}
					}
				}
			}
		}
	}
	JOINT lThigh
	{
		OFFSET 5.338403 -1.642589 1.368821
		CHANNELS 3 Xrotation Zrotation Yrotation 
		JOINT lShin
		{
			OFFSET -2.053232 -20.121670 0.000000
			CHANNELS 3 Xrotation Zrotation Yrotation 
			JOINT lFoot
			{
				OFFSET 0.000000 -19.300380 -1.231939
				CHANNELS 3 Xrotation Yrotation Zrotation 
				End Site
				{
					OFFSET 0.000000 -2.463878 4.653993
				}
			}
		}
	}
	JOINT rThigh
	{
		OFFSET -5.338403 -1.642589 1.368821
		CHANNELS 3 Xrotation Zrotation Yrotation 
		JOINT rShin
		{
			OFFSET 2.053232 -20.121670 0.000000
			CHANNELS 3 Xrotation Zrotation Yrotation 
			JOINT rFoot
			{
				OFFSET 0.000000 -19.300380 -1.231939
				CHANNELS 3 Xrotation Yrotation Zrotation 
				End Site
				{
					OFFSET 0.000000 -2.463878 4.653993
				}
			}
		}
	}
}
MOTION
Frames: 13
Frame Time: 0.033264
0.000000 4.831345 0.000000 -90.001877 0.000000 0.000000 23.455957 -0.029330 -0.022161 23.368195 -0.297345 -0.791548 -13.352032 0.000000 0.000000 -8.126765 0.000000 0.000000 5.716747 -15.124283 -4.164809 -77.477921 -20.961863 -3.575060 -40.530903 -31.264494 35.594116 -38.424294 25.947798 14.813027 -8.610972 -0.665439 0.337423 76.742165 -30.292879 0.734295 74.998512 -0.001709 34.000713 6.998461 -0.202121 23.599018 -0.919320 28.388403 0.479930 10.208740 -1.981909 -0.080483 13.611595 2.328721 5.489282 -37.846592 -32.447720 -0.186878 85.380165 -9.046591 -0.222689 18.679640 -1.731586 -5.014312 
0.000000 4.831345 0.000000 -90.001877 0.000000 0.000000 23.455957 -0.029330 -0.022161 23.143213 -0.296989 -0.791550 -13.194940 0.000000 0.000000 -8.212534 0.000000 0.000000 5.567395 -15.362225 -3.955254 -77.279709 -21.055502 -3.668183 -40.164585 -30.985096 35.777439 -38.293972 25.637091 15.031744 -8.610972 -0.665439 0.337423 76.742165 -30.292879 0.734295 74.998512 -0.001709 34.000713 6.998461 -0.202121 23.599018 -0.919320 28.388403 0.479930 10.208740 -1.981909 -0.080483 13.611595 2.328721 5.489282 -37.846592 -32.447720 -0.186878 85.380165 -9.046591 -0.222689 18.679640 -1.731586 -5.014312 
0.000000 4.831345 0.000000 -90.001877 0.000000 0.000000 23.455957 -0.029330 -0.022161 22.918234 -0.296634 -0.791554 -13.037882 0.000000 0.000000 -8.298295 0.000000 0.000000 5.418783 -15.600681 -3.746113 -77.081223 -21.148832 -3.761706 -39.800392 -30.704716 35.958130 -38.165287 25.325943 15.249100 -8.610972 -0.665439 0.337423 76.742165 -30.292879 0.734295 74.998512 -0.001709 34.000713 6.998461 -0.202121 23.599018 -0.919320 28.388403 0.479930 10.208740 -1.981909 -0.080483 13.611595 2.328721 5.489282 -37.846592 -32.447720 -0.186878 85.380165 -9.046591 -0.222689 18.679640 -1.731586 -5.014312 
0.000000 4.831345 0.000000 -90.001877 0.000000 0.000000 23.455957 -0.029330 -0.022161 22.693260 -0.296278 -0.791559 -12.880857 0.000000 0.000000 -8.384048 0.000000 0.000000 5.270913 -15.839647 -3.537385 -76.882439 -21.241859 -3.855634 -39.438313 -30.423384 36.136219 -38.038261 25.014387 15.465124 -8.610972 -0.665439 0.337423 76.742165 -30.292879 0.734295 74.998512 -0.001709 34.000713 6.998461 -0.202121 23.599018 -0.919320 28.388403 0.479930 10.208740 -1.981909 -0.080483 13.611595 2.328721 5.489282 -37.846592 -32.447720 -0.186878 85.380165 -9.046591 -0.222689 18.679640 -1.731586 -5.014312 
0.000000 4.831345 0.000000 -90.001877 0.000000 0.000000 23.455957 -0.029330 -0.022161 22.468294 -0.295922 -0.791565 -12.723862 0.000000 0.000000 -8.469790 0.000000 0.000000 5.123784 -16.079103 -3.329065 -76.683365 -21.334581 -3.949967 -39.078312 -30.141117 36.311714 -37.912849 24.702423 15.679818 -8.610972 -0.665439 0.337423 76.742165 -30.292879 0.734295 74.998512 -0.001709 34.000713 6.998461 -0.202121 23.599018 -0.919320 28.388403 0.479930 10.208740 -1.981909 -0.080483 13.611595 2.328721 5.489282 -37.846592 -32.447720 -0.186878 85.380165 -9.046591 -0.222689 18.679640 -1.731586 -5.014312 
0.000000 4.831345 0.000000 -90.001877 0.000000 0.000000 23.455957 -0.029330 -0.022161 22.243334 -0.295567 -0.791573 -12.566899 0.000000 0.000000 -8.555522 0.000000 0.000000 4.977400 -16.319048 -3.121156 -76.484016 -21.426992 -4.044698 -38.720398 -29.857954 36.484650 -37.789047 24.390068 15.893207 -8.610972 -0.665439 0.337423 76.742165 -30.292879 0.734295 74.998512 -0.001709 34.000713 6.998461 -0.202121 23.599018 -0.919320 28.388403 0.479930 10.208740 -1.981909 -0.080483 13.611595 2.328721 5.489282 -37.846592 -32.447720 -0.186878 85.380165 -9.046591 -0.222689 18.679640 -1.731586 -5.014312 
0.000000 4.831345 0.000000 -90.001877 0.000000 0.000000 23.455957 -0.029330 -0.022161 22.018385 -0.295211 -0.791582 -12.409972 0.000000 0.000000 -8.641247 0.000000 0.000000 4.831762 -16.559471 -2.913657 -76.284386 -21.519091 -4.139833 -38.364532 -29.573900 36.655022 -37.666840 24.077333 16.105309 -8.610972 -0.665439 0.337423 76.742165 -30.292879 0.734295 74.998512 -0.001709 34.000713 6.998461 -0.202121 23.599018 -0.919320 28.388403 0.479930 10.208740 -1.981909 -0.080483 13.611595 2.328721 5.489282 -37.846592 -32.447720 -0.186878 85.380165 -9.046591 -0.222689 18.679640 -1.731586 -5.014312 
0.000000 4.831345 0.000000 -90.001877 0.000000 0.000000 23.455957 -0.029330 -0.022161 21.793457 -0.294856 -0.791592 -12.253078 0.000000 0.000000 -8.726961 0.000000 0.000000 4.686875 -16.800367 -2.706566 -76.084480 -21.610882 -4.235367 -38.010685 -29.288988 36.822861 -37.546204 23.764233 16.316135 -8.610972 -0.665439 0.337423 76.742165 -30.292879 0.734295 74.998512 -0.001709 34.000713 6.998461 -0.202121 23.599018 -0.919320 28.388403 0.479930 10.208740 -1.981909 -0.080483 13.611595 2.328721 5.489282 -37.846592 -32.447720 -0.186878 85.380165 -9.046591 -0.222689 18.679640 -1.731586 -5.014312 
0.000000 4.831345 0.000000 -90.001877 0.000000 0.000000 23.455957 -0.029330 -0.022161 21.568531 -0.294500 -0.791604 -12.096220 0.000000 0.000000 -8.812664 0.000000 0.000000 4.542737 -17.041718 -2.499882 -75.884270 -21.702347 -4.331305 -37.658871 -29.003252 36.988197 -37.427139 23.450790 16.525705 -8.610972 -0.665439 0.337423 76.742165 -30.292879 0.734295 74.998512 -0.001709 34.000713 6.998461 -0.202121 23.599018 -0.919320 28.388403 0.479930 10.208740 -1.981909 -0.080483 13.611595 2.328721 5.489282 -37.846592 -32.447720 -0.186878 85.380165 -9.046591 -0.222689 18.679640 -1.731586 -5.014312 
0.000000 4.831345 0.000000 -90.001877 0.000000 0.000000 23.455957 -0.029330 -0.022161 21.343624 -0.294145 -0.791617 -11.003283 0.000000 0.000000 -8.242530 0.409277 -0.073104 4.399350 -17.283512 -2.293605 -75.683807 -21.793499 -4.427634 -37.309029 -28.716698 37.151020 -37.309628 23.137007 16.734035 -8.610972 -0.665439 0.337423 76.742165 -30.292879 0.734295 74.998512 -0.001709 34.000713 6.998461 -0.202121 23.599018 -0.919320 28.388403 0.479930 10.208740 -1.981909 -0.080483 13.611595 2.328721 5.489282 -37.846592 -32.447720 -0.186878 85.380165 -9.046591 -0.222689 18.679640 -1.731586 -5.014312 
0.000000 4.831345 0.000000 -90.001877 0.000000 0.000000 23.455957 -0.029330 -0.022161 21.118729 -0.293790 -0.791631 -9.906855 0.000000 0.000000 -7.672132 0.819797 -0.142224 4.256719 -17.525753 -2.087734 -75.483047 -21.884336 -4.524369 -36.961182 -28.429369 37.311378 -37.193649 22.822905 16.941143 -8.610972 -0.665439 0.337423 76.742165 -30.292879 0.734295 74.998512 -0.001709 34.000713 6.998461 -0.202121 23.599018 -0.919320 28.388403 0.479930 10.208740 -1.981909 -0.080483 13.611595 2.328721 5.489282 -37.846592 -32.447720 -0.186878 85.380165 -9.046591 -0.222689 18.679640 -1.731586 -5.014312 
0.000000 4.831345 0.000000 -90.001877 0.000000 0.000000 23.455957 -0.029330 -0.022161 20.893864 -0.293435 -0.791648 -8.807117 0.000000 0.000000 -7.101453 1.231491 -0.207339 4.114841 -17.768419 -1.882266 -75.282021 -21.974844 -4.621496 -36.615269 -28.141264 37.469269 -37.079193 22.508486 17.147038 -8.610972 -0.665439 0.337423 76.742165 -30.292879 0.734295 74.998512 -0.001709 34.000713 6.998461 -0.202121 23.599018 -0.919320 28.388403 0.479930 10.208740 -1.981909 -0.080483 13.611595 2.328721 5.489282 -37.846592 -32.447720 -0.186878 85.380165 -9.046591 -0.222689 18.679640 -1.731586 -5.014312 
0.000000 4.831345 0.000000 -90.001877 0.000000 0.000000 23.455957 -0.029330 -0.022161 20.669016 -0.293080 -0.791665 -7.704267 0.000000 0.000000 -6.530481 1.644289 -0.268429 3.973723 -18.011513 -1.677203 -75.080711 -22.065035 -4.719020 -36.271301 -27.852428 37.624714 -36.966244 22.193771 17.351738 -8.610972 -0.665439 0.337423 76.742165 -30.292879 0.734295 74.998512 -0.001709 34.000713 6.998461 -0.202121 23.599018 -0.919320 28.388403 0.479930 10.208740 -1.981909 -0.080483 13.611595 2.328721 5.489282 -37.846592 -32.447720 -0.186878 85.380165 -9.046591 -0.222689 18.679640 -1.731586 -5.014312 
